<svg width="32" height="33" viewBox="0 0 32 33" fill="none" xmlns="http://www.w3.org/2000/svg">
<rect y="0.539062" width="32" height="32" rx="1" fill="white"/>
<path fill-rule="evenodd" clip-rule="evenodd" d="M20.0153 16.3313C20.2812 15.6739 19.7974 14.9564 19.0883 14.9564H18.9047C18.3525 14.9564 17.9047 14.5087 17.9047 13.9564V12.8465C17.9047 12.2641 18.3826 12.319 18.9714 12.319H19.0381C19.5904 12.319 20.0381 11.8713 20.0381 11.319V10.6816C20.0381 10.1294 19.5904 9.68164 19.0381 9.68164H17.9047C17.0561 9.68164 16.2421 10.0151 15.642 10.6086C15.0419 11.2021 14.7047 12.0071 14.7047 12.8465V13.9564C14.7047 14.5087 14.257 14.9564 13.7047 14.9564H13.5714C13.0191 14.9564 12.5714 15.4041 12.5714 15.9564V16.5937C12.5714 17.146 13.0191 17.5937 13.5714 17.5937H13.7047C14.257 17.5937 14.7047 18.0414 14.7047 18.5937V22.3959C14.7047 22.9482 15.1525 23.3959 15.7047 23.3959H16.9047C17.457 23.3959 17.9047 22.9482 17.9047 22.3959V18.5494C17.9047 18.0216 18.3326 17.5937 18.8604 17.5937C19.2498 17.5937 19.6003 17.3574 19.7463 16.9964L20.0153 16.3313Z" fill="#9893A3"/>
</svg>
