<svg width="32" height="33" viewBox="0 0 32 33" fill="none" xmlns="http://www.w3.org/2000/svg">
<rect y="0.539062" width="32" height="32" rx="1" fill="white"/>
<g clip-path="url(#clip0_88_130)">
<path d="M24.2415 11.7287C23.8094 12.3714 23.2794 12.9192 22.6513 13.3722C22.6575 13.4937 22.6606 13.631 22.6606 13.7842C22.6606 14.6351 22.5365 15.487 22.2884 16.34C22.0403 17.193 21.6613 18.0094 21.1514 18.7893C20.6415 19.5692 20.0342 20.2602 19.3293 20.8621C18.6245 21.4641 17.7772 21.9441 16.7876 22.302C15.7979 22.66 14.7372 22.839 13.6056 22.839C11.8395 22.839 10.213 22.3622 8.72632 21.4086C8.9902 21.438 9.24327 21.4527 9.48556 21.4527C10.961 21.4527 12.2788 20.9982 13.439 20.0893C12.7511 20.0767 12.135 19.8649 11.5907 19.454C11.0464 19.0431 10.6719 18.518 10.4671 17.8788C10.6695 17.9173 10.8693 17.9366 11.0665 17.9366C11.3504 17.9366 11.6297 17.8996 11.9044 17.8256C11.1703 17.6785 10.5612 17.3129 10.0773 16.7286C9.59336 16.1443 9.3514 15.4699 9.3514 14.7055V14.6661C9.80203 14.9156 10.2827 15.0483 10.7934 15.0642C10.3585 14.7743 10.0137 14.3962 9.75895 13.93C9.5042 13.4637 9.37683 12.9592 9.37683 12.4163C9.37683 11.8438 9.5203 11.3106 9.80724 10.8169C10.6056 11.7966 11.573 12.5796 12.7095 13.166C13.8459 13.7523 15.0651 14.078 16.3671 14.1429C16.3115 13.9115 16.2837 13.67 16.2836 13.4184C16.2836 12.54 16.5945 11.79 17.2162 11.1683C17.8379 10.5467 18.5879 10.2358 19.4664 10.2358C20.386 10.2358 21.1607 10.5707 21.7903 11.2405C22.5097 11.098 23.1832 10.8402 23.811 10.4673C23.5691 11.2284 23.1031 11.8156 22.4129 12.2288C23.0473 12.1534 23.6568 11.9867 24.2414 11.7287H24.2415Z" fill="#9893A3"/>
</g>
<defs>
<clipPath id="clip0_88_130">
<rect x="8.72729" y="10.2358" width="15.5152" height="12.6032" rx="1" fill="white"/>
</clipPath>
</defs>
</svg>
